<?xml version="1.0" encoding="UTF-8"?>
<svg version="1.1" xmlns="http://www.w3.org/2000/svg" width="512" height="512">
<path d="M0 0 C2.70251087 2.48897417 5.36300897 5.01955942 8.00952148 7.56787109 C8.53320312 8.06963867 9.05688477 8.57140625 9.59643555 9.08837891 C25.59324012 24.49087495 39.07522469 42.45581011 50.00073242 61.78515625 C50.98070989 63.51695573 51.98308875 65.23601897 52.98608398 66.95458984 C84.21719615 121.741108 89.56796761 189.89333179 73.29077148 250.12255859 C61.83645274 290.23370785 40.8502302 325.61576705 12.00952148 355.56787109 C11.50775391 356.09155273 11.00598633 356.61523438 10.48901367 357.15478516 C-4.91348237 373.15158973 -22.87841753 386.6335743 -42.20776367 397.55908203 C-43.93956316 398.5390595 -45.65862639 399.54143836 -47.37719727 400.54443359 C-102.12107081 431.74130371 -170.35137865 437.11325277 -230.54125977 420.84912109 C-270.65385491 409.40039298 -306.03894107 388.40803423 -335.99047852 359.56787109 C-336.51416016 359.06610352 -337.0378418 358.56433594 -337.57739258 358.04736328 C-353.57419715 342.64486723 -367.05618172 324.67993208 -377.98168945 305.35058594 C-378.96166692 303.61878645 -379.96404579 301.89972322 -380.96704102 300.18115234 C-412.16848757 245.44667445 -417.65690386 177.11222908 -401.23657227 116.94287109 C-389.71364167 76.87280922 -368.83450042 41.523416 -339.99047852 11.56787109 C-339.48871094 11.04418945 -338.98694336 10.52050781 -338.4699707 9.98095703 C-323.06747466 -6.01584754 -305.1025395 -19.49783211 -285.77319336 -30.42333984 C-284.04139387 -31.40331731 -282.32233064 -32.40569618 -280.60375977 -33.40869141 C-195.61531293 -81.85644471 -85.46274715 -68.25148766 0 0 Z M-300.99047852 -6.43212891 C-301.56781738 -6.01318359 -302.14515625 -5.59423828 -302.73999023 -5.16259766 C-311.38871264 1.15656166 -319.27448595 8.14935703 -326.99047852 15.56787109 C-327.53736328 16.08752441 -328.08424805 16.60717773 -328.64770508 17.14257812 C-336.93149998 25.03966622 -344.17705093 33.37921405 -350.99047852 42.56787109 C-351.41425781 43.13086914 -351.83803711 43.69386719 -352.2746582 44.27392578 C-376.72734429 76.84618173 -391.77594747 115.22462308 -396.99047852 155.56787109 C-397.08474121 156.26855713 -397.17900391 156.96924316 -397.27612305 157.69116211 C-404.0244992 214.81091479 -387.81612716 274.27693478 -353.99047852 320.56787109 C-353.36206055 321.43387939 -353.36206055 321.43387939 -352.72094727 322.31738281 C-346.40178795 330.96610522 -339.40899258 338.85187853 -331.99047852 346.56787109 C-331.21099854 347.38819824 -331.21099854 347.38819824 -330.41577148 348.22509766 C-322.51868339 356.50889256 -314.17913556 363.7544435 -304.99047852 370.56787109 C-304.42748047 370.99165039 -303.86448242 371.41542969 -303.28442383 371.85205078 C-270.28735285 396.62365456 -231.80536511 411.32161798 -190.99047852 416.56787109 C-190.35368164 416.66213379 -189.71688477 416.75639648 -189.06079102 416.85351562 C-130.95186596 424.64691512 -69.67203873 405.66520874 -23.30688477 370.81396484 C-15.46503827 364.82609102 -8.11029941 358.39255803 -0.99047852 351.56787109 C-0.46067383 351.06529785 0.06913086 350.56272461 0.61499023 350.04492188 C8.91853246 342.13338179 16.18195734 333.77559284 23.00952148 324.56787109 C23.64519043 323.72337402 23.64519043 323.72337402 24.29370117 322.86181641 C48.98900264 289.96638409 63.98044459 251.32646307 69.00952148 210.56787109 C69.10378418 209.8445459 69.19804687 209.1212207 69.29516602 208.37597656 C75.91797837 151.61409109 59.60338267 92.5416026 26.00952148 46.56787109 C25.59057617 45.99053223 25.17163086 45.41319336 24.73999023 44.81835938 C18.42083092 36.16963697 11.42803555 28.28386365 4.00952148 20.56787109 C3.48986816 20.02098633 2.97021484 19.47410156 2.43481445 18.91064453 C-5.46227364 10.62684963 -13.80182147 3.38129868 -22.99047852 -3.43212891 C-23.55347656 -3.8559082 -24.11647461 -4.2796875 -24.6965332 -4.71630859 C-57.26878915 -29.16899468 -95.6472305 -44.21759786 -135.99047852 -49.43212891 C-136.69116455 -49.5263916 -137.39185059 -49.6206543 -138.11376953 -49.71777344 C-195.23352222 -56.46614959 -254.6995422 -40.25777755 -300.99047852 -6.43212891 Z " fill="#F5A02C" transform="translate(419.990478515625,72.43212890625)"/>
<path d="M0 0 C1.25214987 -0.10466489 2.50429974 -0.20932978 3.79439354 -0.31716633 C7.93741157 -0.65275315 12.08299842 -0.93874839 16.23071289 -1.20947266 C16.94494911 -1.25618803 17.65918533 -1.30290341 18.39506507 -1.3510344 C128.82351769 -8.42843909 128.82351769 -8.42843909 161.75083256 19.06363964 C186.31383419 40.94253343 193.78476909 66.30831179 195.67312968 98.22066456 C196.94065394 122.07443861 196.66362796 145.89634366 195.5925293 169.75073242 C195.55448386 170.60655521 195.51643842 171.462378 195.47724009 172.34413481 C195.10495276 180.56941815 194.68564636 188.78600977 194.06202757 196.99642664 C193.83941254 199.98662749 193.64757482 202.97841369 193.45934939 205.97095239 C193.31868957 207.99308112 193.13069809 210.01174736 192.94083595 212.02985096 C192.42443087 220.32594387 193.76073326 224.68251703 199.23344231 231.0043726 C202.73344198 235.30456284 204.48438029 240.30124841 206.26586914 245.50146484 C206.63518555 246.57074219 206.63518555 246.57074219 207.01196289 247.66162109 C211.17667958 262.56843463 208.35524953 279.63558522 200.95336914 292.93896484 C192.02600258 306.99721787 178.92708357 317.13129828 162.56542969 321.0847168 C144.96873164 324.27375635 128.46657082 320.82277012 113.80883789 310.82568359 C101.55480549 301.73398214 93.64538246 289.33198731 91.20507812 274.29052734 C91.02822983 273.20723145 90.85138153 272.12393555 90.66917419 271.0078125 C90.53608353 270.18071777 90.40299286 269.35362305 90.26586914 268.50146484 C89.00799088 268.51034729 87.75011261 268.51922974 86.45411682 268.52838135 C74.58104169 268.60958218 62.70802315 268.66948558 50.83473301 268.70871353 C44.73101257 268.72955923 38.62751689 268.75782227 32.52392578 268.80322266 C26.63003782 268.84678723 20.73636561 268.87062464 14.84232903 268.88097382 C12.59732608 268.88834608 10.35233451 268.90274235 8.10742378 268.92438507 C4.95498561 268.95355945 1.80343106 268.9574149 -1.34912109 268.95556641 C-2.27053894 268.96994751 -3.19195679 268.98432861 -4.14129639 268.99914551 C-11.92009285 268.95001598 -17.57350914 266.62880639 -23.98413086 262.31396484 C-31.48577297 254.64183086 -32.88517998 246.85360278 -32.87457275 236.53277588 C-32.87754388 235.62830522 -32.880515 234.72383457 -32.88357615 233.79195571 C-32.89224926 230.76054573 -32.89377023 227.72917531 -32.89526367 224.69775391 C-32.89989281 222.5244539 -32.9049176 220.3511547 -32.91030884 218.17785645 C-32.92342524 212.27277818 -32.92987628 206.36771129 -32.9343195 200.46262074 C-32.93725133 196.77278554 -32.94135635 193.08295345 -32.94582367 189.39311981 C-32.95949636 177.84675303 -32.96916424 166.30039334 -32.97302556 154.75401902 C-32.97750644 141.42852513 -32.99505672 128.10316573 -33.02402616 114.77770066 C-33.04564576 104.47520686 -33.05572999 94.17274191 -33.05706668 83.87022567 C-33.05811446 77.71801164 -33.06401686 71.56589405 -33.08188629 65.41370392 C-33.09837176 59.62544719 -33.10052006 53.83735937 -33.09174728 48.04908752 C-33.09097718 45.92750852 -33.09531606 43.80592041 -33.10520554 41.68436432 C-33.11793838 38.7820721 -33.1120408 35.88037691 -33.10162354 32.97808838 C-33.10967994 32.14392403 -33.11773634 31.30975968 -33.12603688 30.45031762 C-33.0615134 22.73326577 -31.38556067 15.54080778 -26.10913086 9.68896484 C-25.19260742 8.62742187 -25.19260742 8.62742187 -24.25756836 7.54443359 C-17.03538266 1.69736994 -9.02403345 0.69080377 0 0 Z M-18.10913086 19.12646484 C-20.77061264 23.01632282 -20.85803588 25.1683689 -20.85438538 29.89212036 C-20.8552398 30.55536469 -20.85609423 31.21860903 -20.85697454 31.90195167 C-20.85862766 34.13453132 -20.85311073 36.36703659 -20.84765625 38.59960938 C-20.84737432 40.19594318 -20.84753223 41.79227711 -20.84809875 43.38861084 C-20.84838649 47.7313404 -20.84249366 52.07404252 -20.8355248 56.41676569 C-20.82928724 60.9518231 -20.82868714 65.4868811 -20.82749939 70.02194214 C-20.82438726 78.61379529 -20.81617547 87.20563576 -20.8061499 95.79748333 C-20.79498509 105.57726935 -20.78947738 115.35705597 -20.78445446 125.13684678 C-20.77399276 145.25839322 -20.7563956 165.37992823 -20.73413086 185.50146484 C-19.62114187 184.54988491 -18.50849721 183.59790222 -17.39599609 182.64575195 C-16.46653419 181.8506144 -16.46653419 181.8506144 -15.51829529 181.03941345 C-13.24665823 179.08126374 -11.01825806 177.07858518 -8.79663086 175.06396484 C-5.16522289 171.78310003 -1.50454415 168.54158047 2.18774414 165.32958984 C5.48300933 162.43074753 8.72436616 159.47238794 11.96899414 156.51708984 C12.72696289 155.85193359 13.48493164 155.18677734 14.26586914 154.50146484 C14.90008789 153.91880859 15.53430664 153.33615234 16.18774414 152.73583984 C19.12980033 150.98830271 20.89584363 150.98529638 24.26586914 151.50146484 C26.97680664 153.44287109 26.97680664 153.44287109 29.64086914 156.06396484 C30.60511492 156.9916701 31.56996176 157.91875102 32.53540039 158.84521484 C33.88698242 160.16005859 33.88698242 160.16005859 35.26586914 161.50146484 C36.60984911 162.70048171 37.96283708 163.88955188 39.32836914 165.06396484 C42.33660442 167.67848426 45.30717163 170.3309814 48.26586914 173.00146484 C51.96735343 176.33961325 55.67895648 179.6631848 59.44946289 182.92333984 C60.64269284 183.96003856 61.82299323 185.01184609 62.98852539 186.07958984 C64.70936261 187.66144256 64.70936261 187.66144256 67.26586914 189.50146484 C71.15299507 188.2057562 72.37350233 185.87461445 74.57836914 182.62646484 C75.47263264 181.34151672 76.36855785 180.05772398 77.26586914 178.77490234 C77.74797852 178.08364258 78.23008789 177.39238281 78.72680664 176.68017578 C81.44959186 172.82577615 84.26830147 169.04243812 87.07836914 165.25146484 C91.67958318 159.02882312 96.24525398 152.78290075 100.76586914 146.50146484 C107.52415283 137.11304853 114.37188781 127.79067189 121.26586914 118.50146484 C121.75249023 117.77540039 122.23911133 117.04933594 122.74047852 116.30126953 C124.26586914 114.50146484 124.26586914 114.50146484 127.57055664 113.79052734 C132.89692632 114.81526231 134.4138456 117.55895963 137.39086914 121.87646484 C137.94653564 122.6423291 138.50220215 123.40819336 139.07470703 124.19726562 C140.82540361 126.61812186 142.54522249 129.05919357 144.26586914 131.50146484 C145.3424745 132.99308887 146.4218336 134.48272982 147.50415039 135.97021484 C149.65718948 138.93203975 151.79975967 141.90095007 153.93383789 144.87646484 C159.11490676 152.08651608 164.39533546 159.22369228 169.67944336 166.35839844 C171.16010265 168.35858731 172.63695373 170.36153928 174.11352539 172.36474609 C174.93480575 173.47306676 175.75639425 174.58115918 176.57836914 175.68896484 C177.27575195 176.63126953 177.97313477 177.57357422 178.69165039 178.54443359 C179.21114258 179.19025391 179.73063477 179.83607422 180.26586914 180.50146484 C180.59586914 180.50146484 180.92586914 180.50146484 181.26586914 180.50146484 C181.26586914 146.18146484 181.26586914 111.86146484 181.26586914 76.50146484 C160.90668966 76.21206428 160.90668966 76.21206428 140.54736328 75.93334961 C138.00691144 75.89524638 135.46646503 75.85677896 132.92602539 75.81787109 C132.26179062 75.80972885 131.59755585 75.80158661 130.91319275 75.79319763 C128.96566671 75.76895007 127.01822743 75.73801325 125.07080078 75.70678711 C123.97159805 75.69124283 122.87239532 75.67569855 121.73988342 75.65968323 C119.26586914 75.50146484 119.26586914 75.50146484 118.26586914 74.50146484 C118.14229836 72.5692249 118.08792456 70.63252685 118.06054688 68.6965332 C118.04060165 67.45532211 118.02065643 66.21411102 118.00010681 64.93528748 C117.98312121 63.57062914 117.96624245 62.20596948 117.94946289 60.84130859 C117.92889978 59.45267609 117.90790348 58.06404994 117.88648987 56.6754303 C117.83120268 53.01432426 117.78182288 49.35316111 117.73364258 45.69195557 C117.68347593 41.95848487 117.62776468 38.22509746 117.57250977 34.49169922 C117.46484696 27.16169155 117.3634202 19.83161479 117.26586914 12.50146484 C100.95844298 12.40794077 84.65110408 12.33744623 68.34347439 12.29421616 C60.77120933 12.27360836 53.19911109 12.2455221 45.62695312 12.19970703 C39.02551457 12.15978437 32.42419688 12.13401907 25.82264096 12.12511086 C22.32849702 12.11990521 18.83469875 12.10770794 15.34066582 12.07854462 C11.43603 12.04621979 7.53172951 12.04550893 3.62695312 12.04736328 C2.473927 12.03298218 1.32090088 12.01860107 0.13293457 12.00378418 C-7.80799712 12.04459949 -12.60188758 13.03951174 -18.10913086 19.12646484 Z M128.26586914 21.50146484 C128.26586914 36.02146484 128.26586914 50.54146484 128.26586914 65.50146484 C142.78586914 65.50146484 157.30586914 65.50146484 172.26586914 65.50146484 C167.35942441 59.7542627 167.35942441 59.7542627 162.20410156 54.31030273 C161.09847115 53.19994408 161.09847115 53.19994408 159.97050476 52.06715393 C159.19527969 51.29395309 158.42005463 50.52075226 157.62133789 49.72412109 C156.81094559 48.91277206 156.00055328 48.10142303 155.16560364 47.26548767 C153.46498358 45.56419083 151.76311493 43.86414124 150.06005859 42.1652832 C147.44064627 39.55126819 144.82666503 36.9319063 142.21313477 34.31201172 C140.55785673 32.65739373 138.90226892 31.00308557 137.24633789 29.34912109 C136.06831856 28.16806541 136.06831856 28.16806541 134.86650085 26.96315002 C134.14517471 26.24497604 133.42384857 25.52680206 132.68066406 24.78686523 C132.04368088 24.15067764 131.40669769 23.51449005 130.75041199 22.85902405 C129.47815428 21.38899145 129.47815428 21.38899145 128.26586914 21.50146484 Z M127.26586914 129.50146484 C120.75430489 137.92439906 114.28441699 146.36159423 108.140625 155.05761719 C104.06341835 160.81911685 99.86638645 166.48976525 95.66870117 172.16381836 C90.92722085 178.58153396 86.24914902 185.04303277 81.61621094 191.53955078 C80.1822635 193.53924344 78.72529281 195.52033974 77.26586914 197.50146484 C76.84708496 198.10909668 76.42830078 198.71672852 75.99682617 199.34277344 C73.93344991 202.15169114 72.73911355 203.39650644 69.28930664 204.16162109 C65.37121226 203.30611987 63.73862335 201.74078753 60.89086914 198.93896484 C59.92662336 198.01125959 58.96177653 197.08417866 57.99633789 196.15771484 C57.0952832 195.28115234 56.19422852 194.40458984 55.26586914 193.50146484 C53.92188917 192.30244798 52.5689012 191.11337781 51.20336914 189.93896484 C48.19513386 187.32444543 45.22456665 184.67194829 42.26586914 182.00146484 C35.68563975 176.06615839 29.00375124 170.25673913 22.26586914 164.50146484 C18.52664785 166.08277104 15.96937177 168.43376882 13.01586914 171.18896484 C9.77771403 174.186261 6.53658362 177.17201094 3.20336914 180.06396484 C-0.6627862 183.42412031 -4.46335459 186.85423627 -8.26538086 190.28662109 C-11.19829394 192.91788964 -14.16302885 195.51053011 -17.14038086 198.09130859 C-20.22767334 200.65026849 -20.22767334 200.65026849 -20.92944336 204.54052734 C-20.90624023 205.72388672 -20.88303711 206.90724609 -20.85913086 208.12646484 C-20.84108398 209.31498047 -20.82303711 210.50349609 -20.80444336 211.72802734 C-20.78124023 212.64326172 -20.75803711 213.55849609 -20.73413086 214.50146484 C-18.92440796 214.53904907 -18.92440796 214.53904907 -17.078125 214.57739258 C-12.61837425 214.67129007 -8.15878573 214.77155318 -3.69921875 214.8737793 C-1.76598901 214.91719526 0.16728073 214.95886527 2.10058594 214.9987793 C4.87325116 215.05632116 7.64571371 215.12006104 10.41821289 215.18505859 C11.28800278 215.20177109 12.15779266 215.21848358 13.05393982 215.23570251 C19.15199743 215.38759314 19.15199743 215.38759314 20.26586914 216.50146484 C20.39086914 220.00146484 20.39086914 220.00146484 20.26586914 223.50146484 C18.13500472 225.63232926 13.37419979 224.76107357 10.41821289 224.81787109 C9.53178604 224.83865219 8.64535919 224.85943329 7.73207092 224.88084412 C4.88925214 224.94643884 2.04633797 225.00527037 -0.79663086 225.06396484 C-2.71916692 225.10714065 -4.6416932 225.15075462 -6.56420898 225.19482422 C-11.28741754 225.30213028 -16.01072239 225.40336935 -20.73413086 225.50146484 C-20.85142286 228.68864927 -20.92173852 231.87527052 -20.98413086 235.06396484 C-21.01764648 235.95921875 -21.05116211 236.85447266 -21.08569336 237.77685547 C-21.17598322 243.93913864 -20.36807988 247.47941277 -16.73413086 252.50146484 C-10.24493493 257.74804878 -4.32315875 257.64755985 3.64599609 257.61499023 C4.583069 257.61513626 5.52014191 257.61528229 6.48561096 257.61543274 C9.57514786 257.61473748 12.66462406 257.60696317 15.75415039 257.59912109 C17.89934761 257.59725554 20.04454525 257.59583229 22.18974304 257.59483337 C27.83022238 257.59101901 33.47067588 257.58119794 39.11114502 257.57012939 C44.86909638 257.55989205 50.62705192 257.55533077 56.38500977 257.55029297 C67.67864089 257.53957471 78.97225287 257.52251125 90.26586914 257.50146484 C90.67166702 255.94930267 90.67166702 255.94930267 91.08566284 254.36578369 C91.44623336 252.997243 91.80692711 251.62873477 92.16772461 250.26025391 C92.34534836 249.57951813 92.52297211 248.89878235 92.70597839 248.19741821 C96.63746726 233.3280725 104.65114167 221.50107252 117.64086914 213.06396484 C132.95462696 204.25133062 148.81591681 202.5585989 165.91430664 206.50146484 C170.02477561 207.72789847 173.64225308 209.41801146 177.37524414 211.51318359 C179.20572005 212.65588291 179.20572005 212.65588291 181.26586914 212.50146484 C182.23341784 207.2336997 182.13182823 203.08905651 179.53149414 198.32177734 C177.4345916 195.28894357 175.15097926 192.40133963 172.85327148 189.51904297 C169.95568342 185.83622726 167.22032996 182.03274796 164.45336914 178.25146484 C163.24939269 176.62092367 162.04496317 174.99071694 160.84008789 173.36083984 C157.45063956 168.76342546 154.10276978 164.13709803 150.76586914 159.50146484 C148.60102991 156.50014216 146.43408323 153.50035027 144.26586914 150.50146484 C143.64550781 149.64294922 143.02514648 148.78443359 142.38598633 147.89990234 C140.47652557 145.2629822 138.55966853 142.63159485 136.64086914 140.00146484 C136.04854492 139.18162109 135.4562207 138.36177734 134.84594727 137.51708984 C134.29100586 136.75912109 133.73606445 136.00115234 133.16430664 135.22021484 C132.43219971 134.2137793 132.43219971 134.2137793 131.68530273 133.18701172 C130.18437219 131.24553691 130.18437219 131.24553691 127.26586914 129.50146484 Z M112.26586914 232.50146484 C109.98489767 235.71131385 108.06552385 239.0006956 106.26586914 242.50146484 C105.84950195 243.29939453 105.43313477 244.09732422 105.00415039 244.91943359 C100.36960985 255.40813061 100.48661219 268.76581288 104.26586914 279.50146484 C110.29950118 292.82291086 119.13878598 301.82073358 132.57446289 307.50146484 C144.88973748 312.07724176 157.13267095 311.52543734 169.19165039 306.21240234 C182.04438397 299.5638237 190.99281863 289.68130536 195.60571289 275.78271484 C197.84102135 264.67230594 197.56649739 252.65963477 192.26586914 242.50146484 C191.81856445 241.63134766 191.37125977 240.76123047 190.91040039 239.86474609 C184.49483149 228.35800188 175.43544545 221.43252232 163.01586914 217.12646484 C144.68444564 212.00571509 124.40553972 217.46855582 112.26586914 232.50146484 Z " fill="#F7A628" transform="translate(170.734130859375,94.49853515625)"/>
<path d="M0 0 C6.99530667 4.41646293 12.3643872 10.31678595 14.4375 18.4375 C15.64759392 28.49250725 13.81544848 35.41883369 8.25 43.6875 C2.26679707 49.53774286 -4.02913147 52.13527543 -12.3125 52.6875 C-20.67149604 52.53037601 -27.51148706 49.07687941 -33.5625 43.4375 C-39.5874946 35.8269805 -40.60959189 27.89474486 -39.5625 18.4375 C-37.29171884 10.57795161 -32.18525573 5.06435674 -25.5625 0.4375 C-18.74692786 -3.11542177 -6.99629076 -3.20892863 0 0 Z M-24.375 14.9375 C-27.89920718 18.96516534 -27.96638339 22.71435943 -27.90625 27.86328125 C-27.35266264 32.00889569 -25.5562197 34.59386123 -22.5625 37.4375 C-18.14764623 40.47884371 -13.83799609 41.34566084 -8.5625 40.4375 C-4.56141812 39.0010061 -2.00751046 36.91674203 0.875 33.8125 C2.99258307 29.23852057 3.11158461 25.39743123 2.4375 20.4375 C0.69575315 16.08313287 -2.46707369 12.74228537 -6.5625 10.4375 C-13.9400501 8.26918778 -18.65400828 9.85217403 -24.375 14.9375 Z " fill="#FAB61B" transform="translate(220.5625,145.5625)"/>
<path d="M0 0 C1.87171875 -0.00386719 1.87171875 -0.00386719 3.78125 -0.0078125 C5.74578125 0.00378906 5.74578125 0.00378906 7.75 0.015625 C9.0596875 0.00789063 10.369375 0.00015625 11.71875 -0.0078125 C12.9665625 -0.00523437 14.214375 -0.00265625 15.5 0 C16.64984375 0.00225586 17.7996875 0.00451172 18.984375 0.00683594 C21.75 0.265625 21.75 0.265625 23.75 2.265625 C24.00396729 4.16308594 24.00396729 4.16308594 24.00878906 6.5 C24.01509338 7.37430664 24.02139771 8.24861328 24.02789307 9.14941406 C24.0238446 10.09526367 24.01979614 11.04111328 24.015625 12.015625 C24.01849518 13.4692041 24.01849518 13.4692041 24.02142334 14.95214844 C24.02278579 17.00325785 24.01908518 19.05437586 24.01074219 21.10546875 C24.00004359 24.25280039 24.01063554 27.3995612 24.0234375 30.546875 C24.02211592 32.5364596 24.01955355 34.52604384 24.015625 36.515625 C24.01967346 37.46147461 24.02372192 38.40732422 24.02789307 39.38183594 C24.02158875 40.25614258 24.01528442 41.13044922 24.00878906 42.03125 C24.00719788 42.80243164 24.00560669 43.57361328 24.00396729 44.36816406 C23.75 46.265625 23.75 46.265625 21.75 48.265625 C18.984375 48.52441406 18.984375 48.52441406 15.5 48.53125 C13.62828125 48.53511719 13.62828125 48.53511719 11.71875 48.5390625 C9.75421875 48.52746094 9.75421875 48.52746094 7.75 48.515625 C6.4403125 48.52335937 5.130625 48.53109375 3.78125 48.5390625 C2.5334375 48.53648437 1.285625 48.53390625 0 48.53125 C-1.72476562 48.52786621 -1.72476562 48.52786621 -3.484375 48.52441406 C-6.25 48.265625 -6.25 48.265625 -8.25 46.265625 C-8.50396729 44.36816406 -8.50396729 44.36816406 -8.50878906 42.03125 C-8.51509338 41.15694336 -8.52139771 40.28263672 -8.52789307 39.38183594 C-8.5238446 38.43598633 -8.51979614 37.49013672 -8.515625 36.515625 C-8.51753845 35.54657227 -8.5194519 34.57751953 -8.52142334 33.57910156 C-8.52278579 31.52799215 -8.51908518 29.47687414 -8.51074219 27.42578125 C-8.50004359 24.27844961 -8.51063554 21.1316888 -8.5234375 17.984375 C-8.52211592 15.9947904 -8.51955355 14.00520616 -8.515625 12.015625 C-8.51967346 11.06977539 -8.52372192 10.12392578 -8.52789307 9.14941406 C-8.52158875 8.27510742 -8.51528442 7.40080078 -8.50878906 6.5 C-8.50719788 5.72881836 -8.50560669 4.95763672 -8.50396729 4.16308594 C-7.85121404 -0.71381697 -3.96904133 0.0077868 0 0 Z M2.75 11.265625 C2.75 19.845625 2.75 28.425625 2.75 37.265625 C6.05 37.265625 9.35 37.265625 12.75 37.265625 C12.75 28.685625 12.75 20.105625 12.75 11.265625 C9.45 11.265625 6.15 11.265625 2.75 11.265625 Z " fill="#F4953A" transform="translate(312.25,351.734375)"/>
<path d="M0 0 C3.88446678 2.58964452 6.69907021 5.64814041 8.8125 9.875 C9.31532832 15.38138223 9.52571529 20.27739776 7.25 25.375 C2.82032699 29.91825437 -0.8259748 32.07949089 -7.125 32.4375 C-12.3765456 32.21334866 -16.34770844 30.46649096 -20.1875 26.875 C-24.13497998 21.50861016 -23.97303996 16.30769945 -23.1875 9.875 C-21.02812362 5.39629344 -18.25797061 2.69301812 -14.1875 -0.125 C-9.20670617 -1.78526461 -4.88476371 -1.72403425 0 0 Z M-11 12.0625 C-12.46258617 13.88308993 -12.46258617 13.88308993 -11.9375 16.5 C-11.41004355 18.8062407 -11.41004355 18.8062407 -10.1875 19.875 C-7.22945427 20.20840471 -7.22945427 20.20840471 -4.1875 19.875 C-1.923116 17.18344799 -1.923116 17.18344799 -2.4375 14.8125 C-3.11282718 12.68023025 -3.11282718 12.68023025 -5.1875 10.875 C-8.99100374 10.50964916 -8.99100374 10.50964916 -11 12.0625 Z " fill="#F49539" transform="translate(327.1875,315.125)"/>
<path d="M0 0 C0.78052734 -0.00322266 1.56105469 -0.00644531 2.36523438 -0.00976562 C8.17033019 0.04533019 8.17033019 0.04533019 10.4375 2.3125 C10.6875 5.8125 10.6875 5.8125 10.4375 9.3125 C7.66675771 12.08324229 5.74367575 11.60110048 1.9609375 11.63476562 C1.12820312 11.63154297 0.29546875 11.62832031 -0.5625 11.625 C-1.39523438 11.64111328 -2.22796875 11.65722656 -3.0859375 11.67382812 C-4.28089844 11.67479492 -4.28089844 11.67479492 -5.5 11.67578125 C-6.23089844 11.67876221 -6.96179688 11.68174316 -7.71484375 11.68481445 C-9.5625 11.3125 -9.5625 11.3125 -11.5625 8.3125 C-11.875 5.8125 -11.875 5.8125 -11.5625 3.3125 C-8.44476383 -0.68764817 -4.70532682 -0.09762089 0 0 Z " fill="#F9B41C" transform="translate(213.5625,308.6875)"/>
</svg>
